# xmcd
#
# Track frame offsets:
#	150
#	13455
#	27452
#	37660
#	51795
#	63395
#	75177
#	89767
#	101515
#	114950
#	127380
#	140382
#	155342
#	170115
#	181067
#	193250
#	212905
#	224980
#	238195
#	251560
#	265185
#	276210
#	287015
#	299830
#
# Disc length: 4155 seconds
#
# Revision: 0
# Processed by: cddbd v1.4PL0 Copyright (c) Steve Scherf et al.
# Submitted via: EasyCDDAExtractor 4.6.9.1
#
DISCID=7c103918
DTITLE=Tonico e Tinoco - Dose Dupla
DYEAR=1900
DGENRE=Country
TTITLE0=Cana Verde
TTITLE1=Saudade de Matao
TTITLE2=Rio Grande
TTITLE3=Adeus Morena Adeus
TTITLE4=Princesa
TTITLE5=Aparecida do Norte
TTITLE6=Chico Mineiro
TTITLE7=Saudades de Ouro Preto
TTITLE8=Eu e a Lua
TTITLE9=Pe de Ipe
TTITLE10=Cabocla
TTITLE11=Tristeza do Jeca
TTITLE12=Amei
TTITLE13=Brasileiro
TTITLE14=Segura a Saia
TTITLE15=Joao Palhaco
TTITLE16=Gaucho Velho
TTITLE17=Sereno da Madrugada
TTITLE18=Rei do Gado
TTITLE19=Meu Sertão
TTITLE20=A Madastra
TTITLE21=Me Leva
TTITLE22=Carro de Boi
TTITLE23=Curitibana
EXTD=
EXTT0=
EXTT1=
EXTT2=
EXTT3=
EXTT4=
EXTT5=
EXTT6=
EXTT7=
EXTT8=
EXTT9=
EXTT10=
EXTT11=
EXTT12=
EXTT13=
EXTT14=
EXTT15=
EXTT16=
EXTT17=
EXTT18=
EXTT19=
EXTT20=
EXTT21=
EXTT22=
EXTT23=
PLAYORDER=
